<?xml version="1.0" encoding="utf-8"?>
<!-- Generator: Adobe Illustrator 25.0.1, SVG Export Plug-In . SVG Version: 6.00 Build 0)  -->
<svg version="1.1" id="Layer_1" xmlns="http://www.w3.org/2000/svg" xmlns:xlink="http://www.w3.org/1999/xlink" x="0px" y="0px"
	 viewBox="0 0 1920 1080" style="enable-background:new 0 0 1920 1080;" xml:space="preserve">
<style type="text/css">
	.st0{fill:#FFFFFF;}
</style>
<g>
	<path d="M324.6,457.7c4.5-9.5,8.7-18.3,12.9-27.1c17.1-36,34.3-71.9,51.3-107.9c1.5-3.2,3.4-4.3,7.8-4.3
		c16.4,0.2,32.9,0.1,49.4,0.1c2.5,0,4.2,0.3,5.2,2.5c21.3,44.9,42.8,89.8,64.1,134.8c0.2,0.4,0.3,0.9,0.5,1.7
		c-1.3,0.1-2.4,0.3-3.5,0.3c-16,0-32-0.1-48,0.1c-3.5,0-4.8-1-5.6-3.4c-2-5.6-4.4-11.2-6.4-16.8c-0.7-2-1.9-2.9-4.7-2.9
		c-18.6,0.1-37.2,0.1-55.8,0c-3.1,0-4.2,0.9-5,3.1c-2.1,5.9-4.3,11.7-6.7,17.5c-0.4,1-2,2.4-3,2.4
		C359.9,457.7,342.7,457.7,324.6,457.7z M439.9,404.7c-6.6-16.8-13-33.3-19.4-49.8c-0.5,0-0.9,0-1.4,0
		c-6.4,16.5-12.7,32.9-19.2,49.8C413.4,404.7,426.3,404.7,439.9,404.7z"/>
	<path d="M1613.2,416.7c-33.9,0-66.4,0-99.2,0c1,8.6,4.6,15.6,14.6,18.9c10.1,3.4,20.5,2.8,28.4-3.5c4.5-3.5,8.7-3.9,14-3.4
		c12.5,1,25.1,2,38.3,3.1c-7.2,9.9-16.1,18.1-29.4,22.4c-7.4,2.3-15.4,3.9-23.2,4.7c-15.9,1.6-31.9,1.5-47.5-1.8
		c-22.4-4.7-40.1-20.7-43.2-38.8c-1.9-11.3-1.6-22.5,4.2-33.2c9-16.4,25.4-25.6,47.3-29c16.9-2.6,34-2.1,50.6,1.5
		c24.3,5.3,38.2,18.5,42.6,37.8C1612.1,402.1,1612.3,409.1,1613.2,416.7z M1514.3,397.9c16.3,0,32.6,0,48.9,0
		c-2.4-15.4-10.1-21.3-26.7-20.9C1524.2,377.4,1515,386,1514.3,397.9z"/>
	<path d="M1134.4,318.5c17.1,0,33.9,0,50.6,0.1c0.9,0,2.1,1.3,2.5,2.2c0.4,1,0.1,2.1,0.1,3.2c0,31.3,0,62.6,0,94
		c0,1.8,0.2,3.5,0.4,5.6c28.4,0,56.4,0,84.9,0c0,11.4,0,22.4,0,33.8c-46,0-92,0-138.5,0C1134.4,411.3,1134.4,365.1,1134.4,318.5z"/>
	<path d="M996.5,406.8c-0.2,27.3-22.3,47.5-56.5,51.8c-17.3,2.2-34.3,1.6-50.6-3.6c-24.4-7.7-39.2-25.5-39.8-46.2
		c-0.9-30.9,27.7-51.9,63.8-53.7c15.1-0.7,29.9-0.1,43.9,4.5c22.8,7.5,35.4,21.2,38.2,40.5C995.8,402.2,996.1,404.5,996.5,406.8z
		 M948,408c-0.6-4.3-0.8-7.7-1.5-11.1c-2.1-9.4-11-16.6-20.9-17c-13-0.5-22.3,4.8-25.8,15c-3,8.7-2.9,17.5,0.6,26.1
		c3.6,8.9,12.2,13.5,24.1,13.3c9.7-0.2,18.1-5.6,21-14.1C946.9,416.1,947.3,411.7,948,408z"/>
	<path d="M818.2,356.7c6.8,0,13,0.1,19.2,0c3.2-0.1,4.3,0.7,4.2,3.3c-0.2,7.1-0.2,14.2,0,21.2c0.1,2.6-1.3,3.2-4.4,3.2
		c-6.2-0.1-12.4,0-19.2,0c0,24.5,0,48.7,0,73.1c-1.8,0.1-3.1,0.3-4.4,0.3c-12.9,0-25.9-0.1-38.8,0.1c-4,0.1-5.2-0.9-5.2-4
		c0.2-20.6,0.1-41.3,0.1-61.9c0-1.2-0.1-2.4,0-3.6c0.4-3.1-1-4.4-5.1-4.1c-3.3,0.3-6.7,0-10,0.1c-2.4,0.1-3.7-0.5-3.7-2.6
		c0.1-7.4,0.1-14.9,0-22.3c0-2,0.9-2.8,3.5-2.7c3.3,0.1,6.7-0.2,10,0.1c3.9,0.3,5.3-0.7,5.4-3.9c0.1-5,0.5-10.1,1.8-15
		c3.3-12.4,14.2-19.5,30.1-20.8c16.3-1.3,32.5,0.5,48.6,1.7c0.3,0,0.5,0.2,1.2,0.6c-1.5,6.6-2.9,13.4-4.7,20.1
		c-0.2,0.7-2.5,1.4-3.8,1.5c-3.9,0-7.9-0.5-11.8-0.5c-7.9,0-12,2.7-13.1,8.7C817.8,351.3,818.2,353.7,818.2,356.7z"/>
	<path d="M1432.4,384.2c0,24.7,0,48.8,0,73.1c-1.6,0.1-2.9,0.3-4.3,0.3c-12.9,0-25.9-0.2-38.8,0.1c-4.6,0.1-5.2-1.3-5.2-4.4
		c0.1-21.3,0.1-42.7,0.1-64c0-5.1,0-5.1-6.4-5.1c-3,0-6.1,0.2-9.1-0.1c-1.2-0.1-3.1-1.6-3.1-2.4c-0.2-7.4-0.1-14.9-0.2-22.3
		c0-2.3,1.4-2.8,4-2.7c4.7,0.1,9.4,0,15.1,0c0-3.5-0.3-6.6,0.1-9.6c0.4-3.9,0.9-7.9,2.2-11.7c3.8-11.3,14.4-16.5,28.2-18.1
		c17-2,33.9,0.3,51.3,1.5c-1.6,7.1-3,13.9-4.8,20.6c-0.2,0.7-2.5,1.5-3.8,1.5c-4.1,0-8.2-0.5-12.3-0.5c-7.5,0-11.6,2.7-12.7,8.6
		c-0.4,2.3-0.1,4.7-0.1,7.7c6.5,0,12.9,0.1,19.2,0c3.1-0.1,4.4,0.7,4.3,3.2c-0.2,7.1-0.2,14.2,0,21.2c0.1,2.6-1.3,3.3-4.3,3.2
		C1445.6,384.1,1439.3,384.2,1432.4,384.2z"/>
	<path d="M737.4,431.4c1,7.5,2.1,15,2.8,22.4c0.1,1-1.2,2.9-2.2,3.1c-15.5,2.5-31.2,4.1-47,1.7c-15.7-2.4-25-9.9-25.9-22.4
		c-1.1-14.7-1-29.4-1.2-44.2c-0.1-7.7,0-7.7-10-7.7c-2.4,0-4.9,0-7.8,0c0-9.1,0-18,0-27.6c4.3,0,8.8-0.2,13.3,0.1
		c3.5,0.2,4.5-0.9,4.4-3.5c-0.2-4.2-0.2-8.4,0.1-12.6c0.1-1.1,0.9-2.7,2-3.2c14.9-6.1,30-12.1,45.9-18.5c0,12.8,0,25,0,37.7
		c8,0,15.2,0.2,22.5-0.1c3.8-0.1,4.7,1,4.6,3.7c-0.2,6.8-0.2,13.7,0,20.5c0.1,2.7-1.1,3.5-4.5,3.5c-7.3-0.2-14.5-0.1-22.1-0.1
		c-0.1,1.6-0.3,2.7-0.3,3.9c0,11.4,0,22.8,0,34.2c0,1.8,0.4,3.6,0.8,5.3c0.9,3.6,3.9,5.5,8.4,5.3
		C726.5,432.7,731.7,431.9,737.4,431.4z"/>
	<path d="M577.6,356.9c0,5.3,0,10.4,0,15.4c0.4,0.2,0.8,0.4,1.2,0.6c5.9-9.7,13.6-17.8,28.4-18.3c8.7-0.3,16.8,1.7,24.7,5
		c-0.2,0.7-0.2,1.4-0.6,2.1c-4.1,7.5-8.3,14.9-12.3,22.4c-1.1,2.1-2.4,2.6-5.1,1.8c-2.4-0.8-4.9-1.3-7.5-1.5
		c-10.1-0.7-17.2,2.5-20.4,10.3c-2.6,6.4-4.3,13.3-4.7,20c-0.8,13-0.4,26.1-0.3,39.2c0,2.9-1,4-4.9,3.9c-13.1-0.2-26.2-0.1-39.3-0.1
		c-1.3,0-2.7-0.1-4.3-0.2c0-33.6,0-67,0-100.6C547.6,356.9,562.1,356.9,577.6,356.9z"/>
	<path d="M1121.5,359.7c-4.7,8.6-9.2,17-13.9,25.3c-0.3,0.6-2.4,1-3.6,0.8c-2.7-0.3-5.2-1.3-7.9-1.5c-9.8-0.8-17,2-20.2,9.4
		c-2.8,6.7-4.8,13.9-5.3,20.9c-0.9,13-0.4,26.1-0.3,39.2c0,3-1.1,3.9-4.9,3.9c-14.3-0.2-28.6-0.1-43.4-0.1c0-33.6,0-67,0-100.7
		c14.5,0,29.2,0,44.7,0c0,5.1,0,10.2,0,15.3c0.4,0.2,0.9,0.4,1.3,0.5c5.9-9.7,13.6-17.8,28.5-18.2
		C1105.1,354.4,1113.2,356.3,1121.5,359.7z"/>
	<path d="M1346.2,356.7c0,33.8,0,67.2,0,101c-2.3,0-4.3,0-6.4,0c-12.5,0-25-0.1-37.5,0c-2.9,0-4-0.7-4-3c0.1-31.7,0-63.3,0.2-95
		c0-1,1.6-2.8,2.5-2.9C1315.9,356.6,1330.8,356.7,1346.2,356.7z"/>
	<path d="M1346.2,318.5c0,8.6,0,16.7,0,25.1c-1.4,0.1-2.7,0.3-4,0.3c-13.1,0-26.2-0.1-39.3,0.1c-3.2,0-4.7-0.5-4.6-3.3
		c0.2-6.4,0.1-12.7,0.1-19.1c0-1.6,0-3.1,3-3.1C1316.1,318.5,1330.9,318.5,1346.2,318.5z"/>
	<path class="st0" d="M439.9,404.7c-13.6,0-26.5,0-40,0c6.5-16.8,12.9-33.3,19.2-49.8c0.5,0,0.9,0,1.4,0
		C426.9,371.3,433.4,387.8,439.9,404.7z"/>
	<path class="st0" d="M1514.3,397.9c0.6-11.9,9.9-20.6,22.2-20.9c16.6-0.4,24.3,5.5,26.7,20.9
		C1546.9,397.9,1530.6,397.9,1514.3,397.9z"/>
	<path class="st0" d="M948,408c-0.7,3.6-1.1,8.1-2.5,12.3c-2.8,8.5-11.3,13.9-21,14.1c-11.8,0.2-20.4-4.4-24.1-13.3
		c-3.5-8.6-3.6-17.4-0.6-26.1c3.5-10.2,12.8-15.5,25.8-15c9.9,0.4,18.9,7.5,20.9,17C947.2,400.3,947.4,403.8,948,408z"/>
</g>
</svg>
